<?xml version="1.0" standalone="no"?>
<!DOCTYPE svg PUBLIC "-//W3C//DTD SVG 20010904//EN"
 "http://www.w3.org/TR/2001/REC-SVG-20010904/DTD/svg10.dtd">
<svg version="1.0" xmlns="http://www.w3.org/2000/svg"
 width="150.000000pt" height="71.000000pt" viewBox="0 0 150.000000 71.000000"
 preserveAspectRatio="xMidYMid meet">

<g transform="translate(0.000000,71.000000) scale(0.100000,-0.100000)"
fill="#000000" stroke="none">
<path d="M695 691 c-53 -24 -91 -70 -100 -121 -7 -40 -7 -40 -50 -40 -81 0
-140 -80 -115 -155 21 -64 92 -102 223 -120 44 -6 47 -5 47 17 1 22 2 21 31
-11 l31 -33 28 33 c28 32 29 33 30 11 0 -23 2 -23 58 -16 78 9 153 38 186 72
75 79 19 202 -92 202 -38 0 -40 1 -46 40 -12 73 -94 140 -171 140 -11 0 -38
-9 -60 -19z m115 -101 c26 -26 26 -81 0 -105 -46 -42 -120 -10 -120 52 0 42
30 73 70 73 17 0 39 -9 50 -20z m-226 -146 c33 -32 8 -84 -39 -84 -15 0 -31
10 -41 25 -15 23 -15 27 0 50 19 29 56 33 80 9z m428 -1 c22 -20 23 -41 1 -65
-20 -22 -56 -23 -77 -2 -48 48 25 113 76 67z"/>
<path d="M1380 115 c0 -57 3 -75 14 -75 7 0 17 10 20 22 l7 23 16 -23 c8 -12
22 -22 29 -22 19 0 18 7 -6 38 l-20 25 22 24 c28 30 3 31 -29 1 l-23 -21 0 41
c0 31 -4 42 -15 42 -12 0 -15 -15 -15 -75z"/>
<path d="M490 105 c0 -58 2 -65 20 -65 16 0 20 7 20 31 l0 31 26 -31 c14 -17
34 -31 45 -31 17 0 19 8 19 65 0 58 -2 65 -20 65 -16 0 -20 -7 -20 -32 l0 -33
-26 33 c-14 17 -34 32 -45 32 -17 0 -19 -7 -19 -65z"/>
<path d="M640 105 l0 -65 55 0 c42 0 55 3 55 15 0 10 -11 15 -35 15 -19 0 -35
5 -35 10 0 6 14 10 30 10 20 0 30 5 30 15 0 10 -10 15 -30 15 -16 0 -30 5 -30
10 0 6 16 10 35 10 24 0 35 5 35 15 0 12 -13 15 -55 15 l-55 0 0 -65z"/>
<path d="M770 105 l0 -65 55 0 c42 0 55 3 55 15 0 10 -11 15 -35 15 -19 0 -35
5 -35 10 0 6 14 10 30 10 20 0 30 5 30 15 0 10 -10 15 -30 15 -16 0 -30 5 -30
10 0 6 14 10 30 10 20 0 30 5 30 15 0 11 -12 15 -50 15 l-50 0 0 -65z"/>
<path d="M880 155 c0 -8 9 -15 20 -15 17 0 20 -7 20 -50 0 -43 3 -50 20 -50
17 0 20 7 20 51 0 42 3 50 17 47 10 -2 25 -22 34 -48 21 -56 43 -63 58 -18
l12 33 14 -32 c8 -18 20 -33 27 -33 13 0 54 98 44 107 -10 10 -25 -8 -31 -37
-8 -36 -21 -31 -30 10 -9 41 -31 38 -46 -7 l-12 -38 -14 34 c-22 52 -36 61
-97 61 -43 0 -56 -3 -56 -15z"/>
<path d="M56 134 c-37 -37 -6 -99 45 -92 24 4 27 2 17 -10 -8 -9 -22 -12 -41
-8 -20 4 -27 2 -25 -7 6 -16 66 -21 84 -6 9 8 14 32 14 74 l0 62 -39 1 c-25 1
-46 -4 -55 -14z m64 -19 c15 -18 7 -43 -16 -52 -24 -9 -46 24 -33 48 12 23 32
24 49 4z"/>
<path d="M180 93 c0 -29 5 -53 10 -53 6 0 10 14 10 30 0 18 8 37 20 47 28 24
25 32 -10 31 -29 -1 -30 -2 -30 -55z"/>
<path d="M268 139 c-22 -12 -24 -71 -4 -88 18 -15 78 -10 83 6 3 8 -6 10 -30
6 -20 -3 -37 -1 -41 6 -5 7 8 11 39 11 43 0 46 1 39 23 -14 46 -46 60 -86 36z
m46 -15 c27 -10 18 -24 -15 -24 -27 0 -30 2 -19 15 14 17 13 17 34 9z"/>
<path d="M388 139 c-22 -12 -24 -71 -4 -88 18 -15 78 -10 83 6 3 8 -6 10 -30
6 -20 -3 -37 -1 -41 6 -5 7 8 11 38 11 50 0 57 10 30 48 -16 23 -48 28 -76 11z
m46 -15 c27 -10 18 -24 -15 -24 -27 0 -30 2 -19 15 14 17 13 17 34 9z"/>
<path d="M1187 132 c-20 -22 -22 -63 -5 -80 16 -16 70 -16 86 0 20 20 15 76
-7 88 -29 15 -56 12 -74 -8z m61 -14 c30 -30 -1 -73 -36 -51 -23 14 -25 29 -7
47 20 19 27 20 43 4z"/>
<path d="M1310 93 c0 -29 5 -53 10 -53 6 0 10 16 10 35 0 24 6 39 20 47 28 18
25 27 -10 26 -29 -1 -30 -2 -30 -55z"/>
</g>
</svg>
