<svg version="1" xmlns="http://www.w3.org/2000/svg" width="346.667" height="346.667" viewBox="0 0 260.000000 260.000000"><path d="M116.5 57.9c-7.5 2.1-10.3 3.3-15.7 6.8-5.4 3.4-16.5 14.6-17.4 17.6-.4 1.2-.9 2.4-1.3 2.7-1.2 1-4.1 8.1-4.1 10 0 1-.4 2.2-1 2.5-.5.3-1 4.7-1 9.7 0 10.2 1.1 9.4-9 6.8-11.2-2.9-26.1 1.9-35.5 11.4-3 3-5.5 6.2-5.5 7.1 0 .8-.3 1.5-.8 1.5-.4 0-1.5 2.3-2.5 5.1-2.1 5.7-2.6 22.4-.8 25.6.5 1 1.8 3.6 2.7 5.8 2 4.4 10.5 13.8 14.4 16 6.9 3.7 14.9 7.5 15.9 7.5.6 0 1.9.4 2.9.9 3.1 1.6 12.4 4.1 15.3 4.1 1.6 0 3.7.4 4.7.9.9.5 8.2 1.6 16.2 2.5 17.4 1.8 17.4 1.8 16-6.9-.5-3.3-1-6.9-1-7.9 0-2.2 0-2.2 12 12.3 6.2 7.6 7.8 9.1 9.3 9 1.1 0 4.6-3.9 14.4-15.8 7.2-8.7 7-8.8 5.2 1.8-1.5 9.4-1.5 9.3 16.1 7.5 8-.9 15.3-2 16.2-2.5 1-.5 3.1-.9 4.7-.9 2.9 0 12.2-2.5 15.3-4.1 1-.5 2.3-.9 2.9-.9 1.6 0 14.3-6.2 14.7-7.2.2-.4.9-.8 1.5-.8 1.6 0 12.7-11.8 12.7-13.6 0-.7.3-1.4.8-1.4 1.9 0 4.2-10.1 4.2-18.5s-2.3-18.5-4.2-18.5c-.5 0-.8-.7-.8-1.5 0-2.8-11-12.6-17.5-15.6-7.5-3.4-17.1-4.6-23.5-2.9-10.1 2.6-9 3.3-9-6.3 0-4.7-.4-8.9-1-9.2-.5-.3-1-1.7-1-3 0-2.3-2.8-9.4-4.1-10.5-.4-.3-.9-1.5-1.3-2.8-.4-1.2-1.2-2.2-1.7-2.2s-.9-.5-.9-1.1c0-1.5-9.8-11-14.5-14-12.9-8.3-28.9-10.9-43-7zm24.1 31.6c6.2 3.3 9.7 7.4 11.8 13.6 2 6.4 2 8.4 0 14.8-5.6 17.3-28.2 21.8-40.4 8-6.1-6.8-7.3-18.6-2.8-26.8 6.2-11.1 20.4-15.5 31.4-9.6zm-73.3 48.2c3.9 2.2 5.7 3.8 5.7 5.1 0 .6.5 1.2 1.1 1.4 1.4.5 2.3 8.7 1.5 13.2-.9 4.6-6.3 9.9-11.7 11.5-8.1 2.5-17.4-2.7-20.5-11.5-3.6-9.9 5-21.4 15.9-21.4 2.8 0 6.2.8 8 1.7zm140.5-.3c7.2 3.7 11.3 13 8.8 20-3.1 8.8-12.4 14-20.5 11.5-5.4-1.6-10.8-6.9-11.7-11.5-.8-4.5.1-12.7 1.5-13.2.6-.2 1.1-.8 1.1-1.4 0-1.2 1.8-2.8 5.5-5 3.6-2.1 11.6-2.3 15.3-.4z"/></svg>