<svg xmlns="http://www.w3.org/2000/svg" xmlns:xlink="http://www.w3.org/1999/xlink" width="210" height="83" viewBox="0 0 210 83"><defs><clipPath id="b"><rect width="210" height="83"/></clipPath></defs><g id="a" clip-path="url(#b)"><text transform="translate(105 71.846)" fill="#fff" font-size="32" font-family="PlayfairDisplay-Bold, Playfair Display" font-weight="700" letter-spacing="0.011em"><tspan x="-101.488" y="0" xml:space="preserve">agrite  ura2.0</tspan></text><g transform="translate(62.554 3)"><g transform="translate(0 0)"><path d="M32.017,29.34c-6.958-6.954-20.574-7.761-30.208-7.761A1.809,1.809,0,0,0,0,23.387C0,33.025.806,46.641,7.761,53.6a16.849,16.849,0,0,0,11.9,4.249A18.03,18.03,0,0,0,32.017,53.6C37.2,48.413,38.15,35.473,32.017,29.34Z" transform="translate(0 -21.579)" fill="rgba(76,175,80,0.4)"/><path d="M290.276,63.776c-9.638,0-23.254.806-30.212,7.761-6.148,6.148-5.182,19.07,0,24.256a18.04,18.04,0,0,0,12.357,4.249,16.847,16.847,0,0,0,11.9-4.249c6.958-6.958,7.761-20.574,7.761-30.212A1.808,1.808,0,0,0,290.276,63.776Z" transform="translate(-214.954 -56.623)" fill="rgba(76,175,80,0.4)"/></g><path d="M107.79,164.895a1.766,1.766,0,0,1-1.718-1.808c0-38.353-13.365-47.976-18.4-51.6a13.312,13.312,0,0,1-1.718-1.371A1.878,1.878,0,0,1,86,107.562a1.66,1.66,0,0,1,2.389,0,10.869,10.869,0,0,0,1.23.944c4.467,3.215,14.99,10.792,18.63,35.644a42.955,42.955,0,0,1,22.606-29.579,1.813,1.813,0,0,1,2.406.8,1.73,1.73,0,0,1-.6,2.289c-.028.018-.058.033-.086.047l-.278.137c-18.839,9.32-22.795,29.746-22.795,45.242A1.766,1.766,0,0,1,107.79,164.895Z" transform="translate(-70.985 -90.776)" fill="#388e3c"/><path d="M19.616,57.822c-4.857,0-9.15-1.522-11.851-4.228C.8,46.637,0,33.024,0,23.386a1.809,1.809,0,0,1,1.808-1.808c9.638,0,23.254.806,30.212,7.761,6.133,6.13,5.182,19.073,0,24.256h0c-2.492,2.492-6.864,4.069-11.692,4.217C20.086,57.819,19.851,57.822,19.616,57.822ZM3.627,25.205c.1,8.81,1.078,20.22,6.694,25.836,2.134,2.13,5.736,3.258,9.9,3.161,3.812-.116,7.443-1.356,9.244-3.161h0c3.866-3.866,4.528-14.614,0-19.142C23.847,26.283,12.437,25.31,3.627,25.205Z" transform="translate(0 -21.578)" fill="#fff"/><path d="M272.514,100.024c-.231,0-.467,0-.7-.011-4.828-.141-9.2-1.722-11.692-4.22-5.183-5.186-6.13-18.126,0-24.256,6.962-6.958,20.574-7.761,30.212-7.761a1.809,1.809,0,0,1,1.808,1.808c0,9.638-.807,23.254-7.761,30.212C281.667,98.5,277.374,100.024,272.514,100.024Zm16-32.621c-8.81.1-20.22,1.078-25.836,6.694-4.528,4.528-3.862,15.276,0,19.142h0c1.8,1.808,5.432,3.045,9.247,3.161,4.134.163,7.761-1.031,9.895-3.164C287.428,87.627,288.4,76.213,288.509,67.4Z" transform="translate(-215.007 -56.622)" fill="#fff"/><path d="M107.684,164.788a1.766,1.766,0,0,1-1.718-1.808c0-38.353-13.365-47.976-18.4-51.6a13.868,13.868,0,0,1-1.718-1.371,1.877,1.877,0,0,1,0-2.557,1.66,1.66,0,0,1,2.43,0,10.844,10.844,0,0,0,1.227.944c4.464,3.211,14.994,10.792,18.63,35.644,2.942-11.688,9.42-23.059,22.6-29.576a1.812,1.812,0,0,1,2.423.8,1.722,1.722,0,0,1-.68,2.336l-.278.141c-18.84,9.316-22.8,29.746-22.8,45.243A1.765,1.765,0,0,1,107.684,164.788Z" transform="translate(-70.88 -90.67)" fill="#fff"/></g></g></svg>