<svg xmlns="http://www.w3.org/2000/svg" xmlns:xlink="http://www.w3.org/1999/xlink" width="210" height="53" viewBox="0 0 210 53"><defs><clipPath id="b"><rect width="210" height="53"/></clipPath></defs><g id="a" clip-path="url(#b)"><path d="M-35.705,27.725q-4.671,0-6.763-2.44a8.8,8.8,0,0,1-2.092-5.927,8.14,8.14,0,0,1,1.36-4.881,10.847,10.847,0,0,1,3.521-3.1,25.973,25.973,0,0,1,4.567-2.022q2.405-.8,4.6-1.6A13.324,13.324,0,0,0-26.955,5.9a3.21,3.21,0,0,0,1.36-2.65V-2.187a8.4,8.4,0,0,0-.593-3.242A4.589,4.589,0,0,0-28-7.625a5.883,5.883,0,0,0-3.172-.767,10.477,10.477,0,0,0-2.789.383,5.089,5.089,0,0,0-2.3,1.29A6.366,6.366,0,0,1-33.23-4.592,5.237,5.237,0,0,1-32.149-1.35a4.689,4.689,0,0,1-1.639,3.765,5.78,5.78,0,0,1-3.87,1.394,4.634,4.634,0,0,1-3.8-1.569,5.789,5.789,0,0,1-1.29-3.8,5.358,5.358,0,0,1,1.011-3.347,11.236,11.236,0,0,1,2.824-2.51,17.143,17.143,0,0,1,4.706-1.743,26.811,26.811,0,0,1,5.961-.628,23.3,23.3,0,0,1,5.787.662,9.221,9.221,0,0,1,4.323,2.405,7.651,7.651,0,0,1,2.092,3.939,29.544,29.544,0,0,1,.488,5.892V22.077a5.746,5.746,0,0,0,.349,2.371,1.22,1.22,0,0,0,1.185.7A2.688,2.688,0,0,0-12.7,24.8a6.847,6.847,0,0,0,1.185-.837l.7,1.185A10.314,10.314,0,0,1-14.2,27.062a13.075,13.075,0,0,1-4.288.662q-4.183,0-5.543-1.708a6.487,6.487,0,0,1-1.429-3.939,11.553,11.553,0,0,1-4.288,4.253A12.215,12.215,0,0,1-35.705,27.725Zm5.369-4.462a5.088,5.088,0,0,0,2.475-.628A7.039,7.039,0,0,0-25.6,20.4V6.11a7.011,7.011,0,0,1-2.336,2.336q-1.5.941-3.068,2.022a9.257,9.257,0,0,0-2.615,2.754,8.343,8.343,0,0,0-1.046,4.462q0,3,1.255,4.288A4.116,4.116,0,0,0-30.336,23.262ZM30.463-23.1,11.5,28.213H9.2L28.162-23.1ZM69.02-9.787q5.369,0,8.506,2.3A7.642,7.642,0,0,1,80.664-.932a9.707,9.707,0,0,1-2.092,6.066,26.527,26.527,0,0,1-5.16,5.02q-3.068,2.3-6.205,4.427a30.9,30.9,0,0,0-5.229,4.358h15.06q2.859,0,3.626-.7A4.122,4.122,0,0,0,81.71,15.8h1.464q0,4.671.07,7.251t.209,4.532a26.34,26.34,0,0,0-4.079-.279q-3.172-.07-6.31-.07H52.775V25.912q1.952-2.092,4.811-4.6A66.734,66.734,0,0,0,63.2,15.732a32.588,32.588,0,0,0,4.637-6.659,16.349,16.349,0,0,0,1.883-7.7q0-3.765-1.673-5.438a6.512,6.512,0,0,0-4.811-1.673,10.033,10.033,0,0,0-5.264,1.36A13.337,13.337,0,0,0,53.89-.374l-1.185-.7A19.183,19.183,0,0,1,58.6-7.207Q62.4-9.787,69.02-9.787ZM96.491,17.475a6.259,6.259,0,0,1,4.323,1.429,5.006,5.006,0,0,1,1.6,3.939,5.006,5.006,0,0,1-1.6,3.939,7.252,7.252,0,0,1-8.646,0,5.006,5.006,0,0,1-1.6-3.939,5.006,5.006,0,0,1,1.6-3.939A6.259,6.259,0,0,1,96.491,17.475ZM129.54-9.787a20.6,20.6,0,0,1,9.831,2.266,16.77,16.77,0,0,1,6.693,6.415,18.832,18.832,0,0,1,2.44,9.726,20.149,20.149,0,0,1-2.475,10.005,18.336,18.336,0,0,1-6.9,7.007,21.893,21.893,0,0,1-20.08.279,17.2,17.2,0,0,1-6.763-6.449,18.624,18.624,0,0,1-2.475-9.726A20.236,20.236,0,0,1,112.249-.2a18.015,18.015,0,0,1,6.9-7.007A20.386,20.386,0,0,1,129.54-9.787Zm-.628,1.255q-3.765,0-6.171,4.776T120.337,9.527a33.347,33.347,0,0,0,1.255,10.11,12.06,12.06,0,0,0,3.312,5.578,6.81,6.81,0,0,0,4.5,1.743q3.765,0,6.171-4.811T137.977,8.83a33.346,33.346,0,0,0-1.255-10.11,11.805,11.805,0,0,0-3.312-5.543A6.889,6.889,0,0,0,128.913-8.532Z" transform="translate(53.367 23.082)" fill="#fff"/></g></svg>